***************************************************************

[IMG]http://www.hotimg.org/images/67363952943939111394.png[/IMG]

***************************************************************

[IMG]http://www.hotimg.org/images/04332460496247014904.jpg[/IMG]

***************************************************************

FILM TITLE: The Debt (2010)

***************************************************************

Genre: Action | Drama | Thriller    

Release: 31 August 2011 (USA) 

Director: John Madden

Writer: Matthew Vaughn (screenplay), Jane Goldman (screenplay)

Stars: Helen Mirren, Sam Worthington and Tom Wilkinson 

Country: USA 

Language: English | German | Ukrainian 

Plot:
The espionage thriller begins in 1997, as shocking news reaches retired 
Mossad secret agents Rachel (Helen Mirren) and Stefan (Tom Wilkinson) 
about their former colleague David (Ciarán Hinds).

IMDB Rating: 7.0/10 from 19,036 users   Metascore: 65/100
 
http://www.imdb.com/title/tt1226753/

****************************************************************

[URL=http://www.hotimg.org/viewer.php?file=34122067260301060800.png][IMG]http://www.hotimg.org/images/34122067260301060800_thumb.png[/IMG][/URL]
[URL=http://www.hotimg.org/viewer.php?file=04213596364107731933.png][IMG]http://www.hotimg.org/images/04213596364107731933_thumb.png[/IMG][/URL]
[URL=http://www.hotimg.org/viewer.php?file=96372782685057052353.png][IMG]http://www.hotimg.org/images/96372782685057052353_thumb.png[/IMG][/URL]
[URL=http://www.hotimg.org/viewer.php?file=64581671597147052320.png][IMG]http://www.hotimg.org/images/64581671597147052320_thumb.png[/IMG][/URL]
[URL=http://www.hotimg.org/viewer.php?file=46805371871990522139.png][IMG]http://www.hotimg.org/images/46805371871990522139_thumb.png[/IMG][/URL]

****************************************************************

General
Complete name                    : The Debt 2010 720p BDRip XviD ac3 (avi) [GREYSHADOW].avi
Format                           : AVI
Format/Info                      : Audio Video Interleave
Format profile                   : OpenDML
File size                        : 3.67 GiB
Duration                         : 1h 53mn
Overall bit rate                 : 4630 Kbps
Writing library                  : VirtualDub build 32842/release

Video
ID                               : 0
Format                           : MPEG-4 Visual
Format profile                   : Simple@L5
Format settings, BVOP            : No
Format settings, QPel            : No
Format settings, GMC             : No warppoints
Format settings, Matrix          : Default (H.263)
Codec ID                         : XVID
Codec ID/Hint                    : XviD
Duration                         : 1h 53mn
Bit rate                         : 3980 Kbps
Width                            : 1280 pixels
Height                           : 528 pixels
Display aspect ratio             : 2.40:1
Frame rate                       : 23.976 fps
Color space                      : YUV
Chroma subsampling               : 4:2:0
Bit depth                        : 8 bits
Scan type                        : Progressive
Compression mode                 : Lossy
Bits/(Pixel*Frame)               : 0.246
Stream size                      : 3.15 GiB (86%)
Writing library                  : XviD 64

Audio
ID                               : 1
Format                           : AC-3
Format/Info                      : Audio Coding 3
Mode extension                   : CM (complete main)
Codec ID                         : 2000
Duration                         : 1h 53mn
Bit rate mode                    : Constant
Bit rate                         : 640 Kbps
Channel(s)                       : 6 channels
Channel positions                : Front: L C R, Side: L R, LFE
Sampling rate                    : 48.0 KHz
Bit depth                        : 16 bits
Compression mode                 : Lossy
Stream size                      : 519 MiB (14%)
Alignment                        : Aligned on interleaves
Interleave, duration             : 42 ms (1.00 video frame)
Interleave, preload duration     : 512 ms

****************************************************************

Video Source: The Debt 2010 1080p Blu-ray VC-1 DTS-HD MA5.1-shhaclm@CHDBits (31.9GB)

Thanks: Medishack (blu-torrents.net)

****************************************************************

I provide a small sample, so please download this to check your 
compatibility first if you are unsure.

****************************************************************

Hash: 027421B19C3336F56A0515F962E7E9AAC9DC66D0

Trackers:
.udp://tracker.1337x.org:80/announce

****************************************************************